<mxfile host="app.diagrams.net" agent="Mozilla/5.0 (Windows NT 10.0; Win64; x64) AppleWebKit/537.36 (KHTML, like Gecko) Chrome/131.0.0.0 Safari/537.36 Edg/131.0.0.0" version="25.0.3">
  <diagram name="Page-1" id="brrsTnmIKpih-RzfwOjo">
    <mxGraphModel dx="1586" dy="895" grid="1" gridSize="10" guides="1" tooltips="1" connect="1" arrows="1" fold="1" page="1" pageScale="1" pageWidth="850" pageHeight="1100" math="0" shadow="0">
      <root>
        <mxCell id="0" />
        <mxCell id="1" parent="0" />
        <UserObject label="" plantUmlData="{&#xa;  &quot;data&quot;: &quot;@startuml\nclass Node {\n    - char data\n    - Node next\n    + Node(char data)\n}\n\nclass LinkedList {\n    - Node head\n    + void add(char data)\n    + Node getHead()\n}\n\nclass DNAPatternCounter {\n    - LinkedList linkedList\n    - HashMap&lt;String, Integer&gt; patternMap\n    - int k\n    - int threshold\n    + void main(String[] args)\n    + void countPatterns(Node head)\n    + void printPatterns()\n}\n\nNode *-- LinkedList : contains\nLinkedList *-- DNAPatternCounter : uses\nDNAPatternCounter o-- HashMap : uses\nDNAPatternCounter o-- StringBuilder : uses\nDNAPatternCounter o-- String : uses\n\nnote \&quot;1..* means one or more instances, 1 means exactly one instance\&quot; as N1\n@enduml\n&quot;,&#xa;  &quot;format&quot;: &quot;png&quot;&#xa;}" id="Eeo3261SHmYb6NBFT2FU-4">
          <mxCell style="shape=image;noLabel=1;verticalAlign=top;aspect=fixed;imageAspect=0;image=data:image/png,iVBORw0KGgoAAAANSUhEUgAAAt4AAAJxCAIAAAD6vCIzAAAAKnRFWHRjb3B5bGVmdABHZW5lcmF0ZWQgYnkgaHR0cHM6Ly9wbGFudHVtbC5jb212zsofAAABtmlUWHRwbGFudHVtbAABAAAAeJyFkk1v00AQhu/7K0Y9OaWO4jSqkIVQWwKUEJeKtL0gDiPvYK9qz0a746gV4r+zcRzHUSXwxTv7PvPOh/bSCzpp6krlFXoPt1YT/FYQvhjyEh1oFOziVmR6ljZ+08ZRD43UH9W5LA0/kV4aL71Xm1sS6i53Y40G1HqYf3CFguQmwNHAdH57dYci5PiDbTj8e+9Buao/dtoN+jLD9buVOMPFGXwJmQW597DeeQWtIw0LPA3OUjrypa2OOq7RcLTz+vET0BV+NJTzbWddlz7qZz5i1iH5wLQDtuBpfDRJGsxYQjmvBrdb6PUiUmg8efVasHG/gX9Du5GuG1Pp//nt0D2j2ArBSTIen0JNyB4sE1gHtXUU9hjeF+fkzyDpZHrGXKqXFtvLJ4Dh6SXqklhv36K6q5DlIVvChpw3liEZTyfT2XgWrVDgau1gcgHJLD0/T6cT+Jzdw1YeqQVuEL6HXk1NKXxbEy/mX/cX8JE3xlmuiUUtHrMDcDGLr43AilyoB4+ZmtMvbCoJGbnVYdoUHu4/xW/VErlosAjexKpdinsJ2kr9Bb1yCX/6W62hAABUg0lEQVR4Xu3de5QV1Z3/ff7gyR/+kV69slamHbW9PGmiaRoUGqS5NQ1C4i0iYJSOKzJ4jSYx8dYigwmRBgV0ovkhxMsPMlEjCIIkNnFokDDzaOJkgpnMpHOTSYKdzESl++gkEwngs0PBns2ub+2z+/Spy6nzfq1aZ+3at6pTpac+nFPn9JD3AAAAMmOIXQEAAJAeogkAAMgQogkAAMgQogkAAMgQogkAAMgQogkAAMgQokns+vr6li9fvnTp0k6kbffu3fbpAQBkDNEkditWrNi3b18BGbBx48b169fbZwgAkCVEk9ipf6zbV0ikZ9myZfYZAgBkCdEkdkSTTFm5cqV9hgAAWUI0iR3RJFOIJgCQcUST2KUeTfb37d/0/LPXff6Glinjzxp+Vl1dnXqcMGXijbd8puuFrv7+fntArhFNACDjiCaxSzeaPLX5m2Mnnts8fsw1Hdffv+HBx3d8fdOPtqpHVVY1zRPGtEwev/XbW+1h+UU0AYCMI5rELq1o8uZbb177ueuaRo9Y9PBiFUeiFtU6YvTIz9/6+f3799tT5BHRBAAyjmgSu1SiyVtvvXXBrAunXXzeky+vD8cRa1F9pl08ffYn5lRDOiGaAEDGEU1il0o0ufbm61UueWbPlnAQERfV87yLp996+632RLlDNAGAjCOaxC75aLJx68am0SOeeMl+v2Ts1HF6ufLmT1mtqv/Zzeds27bNni5fiCYAkHFEk9glHE36+/vHTW6x7i9Zu+sbKo4MOd7Vd15npRM1qrWtNd/f2SGaAEDGEU1il3A06Xqhq3nCGCtzrPnOYyqLNDY3qUKwqNW2S6ZZ3dTSMqmlu7vbnrQc6uvr7ao0EE0AIOOIJrFLOJp85pbPXttxvRhNzCwSFU2uX3DjnQvutCc9nhky/AOHf89YEU0AIOOIJrFLOJpMnDLx/vUPFo0mX31udfAbJ9aixk6bNs2e9Hg1NTVNTU1B2T9w+PeMFdEEADKOaBK7hKPJR4Z/5PGdf180mkQtamzTiKOxI0ptbe3s2bP7+voKRuDo7e2tP0aVrcquri7ds6enR/dU5aAyMUQTAMg4oknsEo4mJ59y8oZ/2VxyNFFjTznlFHvS4wUhw3w0C2a5sbExKLS3t6tAY7Va5WQQTQAg44gmsUs4mnykqXGQ75qMGDHCnvR4QZ5oa2vr6+tzRxP/ysQQTQAg44gmsUs4mkxua/W51+Sk00+edfWccDR58JlV5513nj3p8cyQ4Q4cYmVtbW0w0ByeGKIJAGQc0SR2CUeT2ztuH8w3dG65+7YFCxbYkx5P54nGxkb3xzRFK5NHNAGAjCOaxC7haNLd3X3uxHFW4Hh0+9oP/vUHVRw5/cNnBIsqX3LVpeFoMql1UtHfNdHZoqmpqaamxqo0y+K9JrpSaWlp0eVkEE0AIOOIJrFLOJr09/e3tk0R/9rwkd+APWrsVDu+qGX5YyunTp1a9NdgxRTi/w0dsWdiiCYAkHFEk9glHE2Ubdu2ndM8Kvw3dNzL09/bOHbsWP6GDgAgXUST2CUfTZQ77rjjY5ec7/+Xhze9uvXSOZd2dHTYE+UO0QQAMo5oErtUosn+/fuvmHvFBTMvfPLl4u+dbPj+5kvnzJo7d64aZU+UO0QTAMg4oknsUokmhSPppKOjo3lM85KvLQvHkWB59l+/9ZW1D40dO1b1rIZcUiCaAEDmEU1il1Y0CWzbtq2trW3S5Em3LLp19bOPfn3XUyqOPPHd9Y9tWdvxxTtbp7Sq1tzfX2IimgBAxhFNYpduNCkc+c5Od3f3ggULpk+fPnLkyLq6OvWoyqpG1Rf9Pk7OEE0AIOOIJrFLPZrARDQBgIwjmsSOaJIpRBMAyDiiSeyIJplCNAGAjCOaxI5okilEEwDIOKJJ7FQ0Wbt2bScyYN26dUQTAMg4oknsOnnXJEuIJgCQsD/+8Y92lRPRJHZEk0xJLJqsXLls5cp7WFhYWKp8uffeL9bV1W3fvt1+lYxGNIkd0SRTEowm9xx+7zUWFhYWFhVNhg37kH86IZrEjmiSKUQTFhYWloQXFU3+v5c2+qcToknsiCaZQjRhYWFhSXhR0UQ9+qcToknsiCaZQjRhYWFhSXgJoslh73RCNIldHNGkvr7eriqruOdPEdGEhYWFJeFFR5PDfumEaBK7vEYTnz4ZRDRhYWFhSXgxo8lhj3RCNIldVDT53llnhxe7U4S4Y4HP/D59MohowsLCwpLwYkWTw8XSCdEkdo5oUrRG6e3trT9m1apVQaUqd3V1BZWqQ7inrhR7ivTwoL9VGR6u+wQcPTOFaMIS03L22R8JV7LkbLnqqlknnfRX4foUl4r4Dy8cTQ470wnRJHaDjCaNjY26vHDhwi1btqhCbW1te3t7UKkjQktLi+6pR4k9RXqI6q9GBWVxznnz5qmphg4dqh5V2dEzgzISTSri1YRlQMvMmdPDlT5LRfzHUBE7WfZFfNZiZYpLRfyHJ0aTw9HphGgSu0FGEzFPmJXuDmZra2urLof5zymumhxNqctCNMngP7xYUlySvEKUtlTtf7HiqRErK3FJ8onUOZ1yyikvvfSS+fpJNIldYtGkoaGh/hj9toc4XOQ/p9Un4OiZKalHk3vv69j13W+W/KJQdKC6hJx22sn//pMX1OPv3/iBqnlt7y5VDhZVDrqpJl0ZdAsm797xhFUp9hQXsac4p7hL4uI/p7iEj4b/hP47eTh08RYnFDcddDanErsVnfCXrx3dQ3G3xTk9F///YsNH239nij5B926LGzL3WZfFOcUjac0gVkaVw4u4XfFZi88lasn4f3iei3q1tF4/iSaxSyyaFK10Kzrcmsqx6r/R5KUeTYLF/SoWXrZ+69GHV/9lwmCgKquacDfdIfxotqrlggum6MpJk8YEBfUaN3/+ZVZPc7g5KryIGyo6p/tQiD3FOcUlfBz8JxR7OhazT9EJgyOprvrqdfx97/t/1KMqm03B4j41utUcJe52eNMDXfyPQPjRbD08kCfov9vihsxPOnRZ3Hr4SIqnJljEbVnl8CL2LPqs3XOG+xSd0PHsxCMjThg+XGarVfZZiCYpcEST8GJ3irjXRMwB4s0i/ilBHC5WBqyZHT0zpUKjyeGIV5PwEswcfjRbxSFRPf0/yRaH+1eKi9jTrHTvXvg4+E8o9nQsUf11OWpXHZOLeyhWhlvNctSm/RdxW2Kf8KPZKg6J6um/2+Lw4B/3qqD+ZS++6SJuXewQVRlVDi9iT/9KxxLVX5ejDqNjcvfOiAPFnp4L0SQFUdHEU9Q3dHQHXRa/YuMfTcThYqXZpG+DdfTMlIqOJsH76upxQNEkeJs9WM488/8Nuo0Ycaau1G8Iiy8u4tu84iIOFyvFXRIXcbj/0QsfDf8J/XcyWMSZzXLUkbS27n9q/Hc7atP+i7gtsY/5KO6M/xP0321xQ8EyZMgQs6bo1s1FrBd3Naqz2CqeQV12PBdxEScxy1GH0drhokdG3G29DHS3zYVokoJBRhOUV4VGk3J9oGN1s8pipblMmzY+XCkOcc8pTi4uZRkefjRbrcpwq+cizmyV9WIeSauDOLZoZbg1anGfxKil6LS6T/hR7GaVxUpzce+2OCS4JPf1v/rDPd8yb54IjxKHR9WLlY76cKu4XbHSZxEnscp6SfE/PMdCNEkB0SRTMhtN1L8zzj+/1V0jDhQ7mI/iB8O6cv78y9z/QhI/gRYXcbhYKe6SuIjDix4Ea0j40Wy1KvXiv5PBIs5slqOOpLV1/1Mj7qFYGbXpq66a5fkPXPEQiX3MR3Fn/J9g1G6HF3FD4r0m4tbF4YcjnrVZab4hoWcTF/EJipVROxO1iJOY5ajDaD078ciIE4p7KFZ6LkSTFBBNMiX1aBJ1y4j1trNY47OYF4bgUXw7V1d273jC/UIpDhcXsWfcc7oXz6MhTij2FJfwOR3Qsw7q9X8MpZ0a/UUJcStiZXhmcQk/u6jF82iX9gTdp0Ds6Z7T3Lp4JHW9ftbuQ+E+kiXsodlTXML7M6AJrWcnHpmiE7r/w/NciCYpIJpkSurRhIUlU4v7gsriv3AkS16IJikgmmQK0YSFRS9XXTXr1R89H65n8VwG81YBi16IJilIJZpk+Tsy6SKasLCwsGRqIZqkYJDRxAwZ/oHDv2d5pbVdf0QTFhYWlkwtRJMUREWT8O+tiT+5VlNT09TUFJT9L/z+Pcsrre36I5qwsLCwZGohmqTAEU2K1hSO/Ong2bNn9/X1FaRfV1NU2ao0f/Ssp6dH91TloFKkB9Ybc4rD66PfyLFWM4howsLCwpKphWiSgkFGk+Bibz6aBbMs/lS82FOkhqiBQdm9IfMvGOvyvHnzVIehQ4fWGz8Rm0EJRpP7Vq7sZGFhYWEpttxnvX4STWJXlmjS1tbW19fnTgz+lSKxp1gZvD2jCj/60Y/0+ytWn8xKLJoAAEpDNIldWaJJUHAnBrGytrY2GGgOFw10+JAhQ4YNG2bWFIgmAIBBI5rErlzRpLGx0f0xTdFKN//hwbsm+/bt+6d/+ifeNQEAlBfRJHaOaBJe7E7Gxb6pqammpsaqNMvivSa6UmlpadHlMPecBWO4eK9JgGgCABgkoknsoqKJJzEx+H9DR+wp0kPMsjhc7BkI+nMbLACgZEST2A0ymqC8iCYAkHFEk9gRTTKFaAIAGUc0iR3RJFOIJgCQcUST2BFNMoVoAgAZRzSJHdEkU4gmAJBxRJPYqWiydu3aTmTAunXriCYAkHFEk9h18q5JlhBNACDjiCaxI5pkCtEEADKOaBI7okmmEE0AIOOIJrEjmmQK0QQAMo5oEjuiSaYQTQAg44gmsSOaZArRBAAyjmgSO6JJphBNACDjiCaxSyWaWH8QOEpvb++MGTPs2uN5TlWyMs6vnov7rysXiCYAkHlEk9gNMpqYV27/q7hnT59uPn0Gw2d+nz6Boj2JJgCQcUST2DmiyTOvvti8+qb3d85Uj6psNx9RU1PT1NQUlItedzWfnn19fW1tbXZtiM9Ug+Ezv0+fQGtrq111PKIJAGQc0SR2UdHk6T3ddcsvu2HLXUt2Llu6c82p918pppPa2trZs2erGFEwrtC9vb31x+iPMHRlV1eX7tnT06N7qnJQGdB9NHPaVatWBZX1xyasl7ZlVoo9ReKuinMGdJ+Ao2ch1NlCNAGAjCOaxC4qmpz54FXzN922ZOeSYFHppHn1TXanYxda89EsmOXGxsag0N7ergKN1WqVw6sFYwZl4cKFW7ZsKRzJRmrCoFIPaWlp0T31KLGnSNxVcc558+apqYYOHaoeVdnRU3NvmmgCABlHNIldVDQ54Z4LF21frKPJvbtW1nTOtDsdu9C2tbX19fW5o4l/pbgq1liV7g5mq/uDFf85xVVTuClcYyKaAEDGEU1iFxVNTnvgcvNdk5ueW+R41yQoiCHAXVlbWxsMNIdbfRw1VqUuNzQ06DnFd2jc/Oe0+gQcPQuhzhaiCQBkHNEkdlHRZMnONR9YNvPqZ2+/e/ti9Xji8k+I95roC21jY6MYAnS5aKUl3BSusSrFacVKt6LDrakcq+GNhmtMRBMAyDiiSeyioklff1/nzq+d/sAVJ9xz0VkPzduwZ6fd4wh9oW1qaqqpqbEqzbJ4A4d5K4Z5i0ZB+oaOeK+J/7bcmcAkDhcrA9bMjp7uD5IKRBMAyDyiSeyiooknMRmIX1EZ6NdeCqFLftQ3dHQHXRa3Zc3mIA4XK80mfRuso6e1GkY0AYCMI5rEbpDRJFa9Hr8GW0H4NVgAyAGiSeyyHE2qENEEADKOaBI7okmmEE0AIOOIJrEjmmQK0QQAMo5oErsVK1bs27fPvkIiDRs3bty8ebN9hgAAWUI0iV1/f//y5cuXLl3aWcnuuusuu6oC7d692z49AICMIZqguL179zY0NKhHuwEAgHIjmqCIQ4cOTZ48ua6uTj2qst0MAEBZEU1QxEMPPXTKKaeoaKIeVdluBgCgrIgmcNm7d++pp55ad4wq87EOACBWRBNE0h/lmPhYBwAQK6IJIumPckx8rAMAiBXRBLKDBw82NDRYuSSg6lWrPQAAgHIgmiDSI488cuaZZ1q5RNWoersrAABlQjRBpEOHDp1//vmnnXaaziWqrGq41wQAEB+iCVz27t37oQ99SEcTVeYbOgCAWBFNUIT+WIePcgAACSCaoIjgY51TTz2Vj3IAAAkgmqC4vXv31tXV8VEOACABRBN4UdHErgIAIAZEE3ghmgAAkkE0gReiCQAgGUQTeCGaAACSQTSBF6IJACAZRBN4IZoAAJJBNIEXogkAIBlEE3ghmgAAkkE0gReiCQAgGUQTeCGaAACSQTSBF6IJACAZRBN4IZoAAJJBNIEXogkAIBlEE3ghmgAAkkE0gReiCQAgGUQTeCGaAACSQTSBF6IJACAZRBN4IZoAAJJBNIEXogkAIBlEE3ghmgAAkkE0gZdUosnZZ59tVwEA8o5oAi9ljCb+gWPmzJl2FQAg74gm8JJKNAEAVCGiCbzoaPLGG2+cdsxrr70WrlTloFJFkB07dliVQb0uvxcxVrnqqqtOOukkvSrOFjUWAFC5iCbwoqPJpEmTdOUFF1wQFMy0ocsqWMyfP9+svO+++1SGeN/73qceVTlo0pO8d/zk7x0/bXg2q4M5DwCgchFN4EVHE/HjGDGaiJVW2WI1RY3SZW5GAYD8IZrAS3zRZMSIEfpDGfMTnPeiR+kyH+gAQP4QTeAlvmhSQpO4D9OmTbOrAAAViGgCLyXcayJWWuX3jAnnz58/0HdNHPepAAAqFNEEXkr7hk5QsMpBZ30brB67Y8cO3S18w6w4m7hdAEBFI5rASxl/1wQAAAeiCbwQTQAAySCawAvRBACQDKIJvBBNAADJIJrAC9EEAJAMogm8EE0AAMkgmsAL0QQAkAyiCbwQTQAAySCawAvRBACQDKIJvBBNAADJIJrAC9EEAJAMogm8EE0AAMkgmsAL0QQAkAyiCbwQTQAAySCawAvRBACQDKIJvBBNAADJIJrAC9EEAJAMogm8EE0AAMkgmsAL0QQAkAyiCbwQTQAAySCawAvRBACQDKIJvBBNAADJIJrAC9EEAJAMogm8EE0AAMkgmsAL0QQAkAyiCbwQTQAAySCawAvRBACQDKIJvBBNAADJIJrAC9EEAJAMogm8EE0AAMkgmsAL0QQAkAyiCbwQTQAAySCalKivr2/58uVLly7tRB7t3r3bPuUAgEQQTUq0YsWKffv2FZBTGzduXL9+vX3WAQDxI5qUSP3D2r6aIV+WLVtmn3UAQPyIJiUimuTeypUr7bMOAIgf0aRERJPcI5oAQCqIJiVKMpr09/d/6zvf+vQXbhw/ZcJZw8+qq6tTj+OnjL/hCzdu6XpOtdoDUA5EEwBIBdGkRIlFk2e3Pjtu0rjm8WOu6bj+/g0PPr7j65t+tFU9qrKqUfXnThr3zNaN9jAMGtEEAFJBNClRAtFk//79n7nlMyNGj1j08GIVR6IW1ar6fPrzN6r+9hQYBKIJAKSCaFKiuKOJyhkz58ycdvF5T768PhxHrEX1UT0/PucS0kkZEU0AIBVEkxLFHU1uvvVmlTae2bMlHETERfVU/T9zy2fsiVAqogkApIJoUqJYo8nzzz8/YvTIJ14S3i8ZO3WcXq68+VNmk+qvRn3r+W/Z06EkRBMASAXRpETxRZP+/v6JrZPC95es3fUNFUeGHO/qO68z+6hRE1on8J2dsiCaAEAqiCYlii+adHd3j514rpVL1LLmO4+pLNLY3KQKwaJW2y6ZZnUbM2GsmsGe1E99fb1dFeLTJ8xnlE+fJBFNACAVRJMSxRdNbu+4/dqO66OiiZlFxGiixt5y+y32pAZHAmhtbbWrQhzDHfQox3CfrQcck5QR0QQAUkE0KVF80WTK1Cn3r3/QJ5p89bnVwc+cmIsa2zrVdY0f5HW9tOE+0cRfWSYpimgCAKkgmpQovmgyvGn44zv/3ieaiIsa29jUaE9qiLquz5gxo7a21qxRPbu6uuqP6O3t1ZVBYdURQbmnpyfopqhyUKmGBDXBJNZwS3jreni9sfVA1CTlRTQBgFQQTUoUXzQ55ZRTNvzL5nDm8IwmaqyawZ7U4LiuW00qK7S3t1tNQWHLli0LFy7UPc2ButzYeDQhqUl07PDfurna0tISFObNm6fqhw4dqh5VWXeIA9EEAFJBNClRfNGkaUTTIN81Gd403J7UUFo4MKPJK6+8YsWCqJ7uSovV5Lj1xDFJGRFNACAVRJMSxRdNpk6b5nmvyUmnnzzr6jlWNzW2bVqbPanBcV33iSa1tbX1oXcsgkotqBSHW5swWU18oAMA1YloUqL4osmCBQtuuuuzPtFEfBPlhgU33rngTntSg+O6bjU5soXjAx2x0houcjSNGjXKXHX0LCOiCQCkgmhSoviiSXd394TJE8LR5NHtaz/41x9UceT0D58RLKp8yVWXWt1aJo13/66J47ruH00Kx98Gq28rKRj3hQzyXhM9T+H4+QuhnjEhmgBAKogmJYovmvT390+dOvXLa5aG08mmI++UaGOnjrNav7T6nrapbe5fg7U+fNmyZUsh4vZSMwHoslm5cOHCYLj44Yv4DR3/rYtzmk3cBgsAuUQ0KVF80UTZtm1b89hmn785bC5PvLR+9JhmNdaeDiUhmgBAKogmJYo1migdHR0Xz/r4gP7y8IWXXqRG2ROhVEQTAEgF0aREcUeT/fv3z50795LZlzz18jPhIGItT7684eJZF6v+apQ9EUpFNAGAVBBNShR3NCkcSScdHR1jxo5Z/tjKcBzRy72PrlB9VE9ySXkRTQAgFUSTEiUQTQLbtm1ra2ub3Dr59rvv+Nrmx57Y9bSKI0989+k1zz562913TGqdrFq5vyQORBMASAXRpESJRZPCke/sdHd3L1iwYPr06SNHjqyrq1OPqqxqVL37+zgoGdEEAFJBNClRktEEqSCaAEAqiCYlIprkHtEEAFJBNCkR0ST3iCYAkAqiSYmIJrlHNAGAVBBNSqSiydq1azuRU+vWrSOaAEAqiCYl6uRdk7wjmgBAKogmJSKa5B7RBABSQTQpEdEk94gmAJAKokmJiCa5RzQBgFQQTUpENMk9ogkApIJoUiKiSe4RTQAgFUSTEqUSTerr6+2qYkoYEqWMU1UEogkApIJoUqJBRhPzMu9/yffvqZUwJEoZp6oIRBMASAXRpERR0eR7Z50dXuxOhUJNTU1TU1NQ9r/k+/fUShgSpYxTVQSiCQCkgmhSIkc0KVqj1NbWzp49u6+vr2Bc8nt7e+uPUWWrsqurS/fs6enRPVU5qBTpgfXGnOJw/61XCaIJAKSCaFKiQUaT4DJvPpoFs9zY2BgU2tvbVaCxWq1ymBqiBgZl94ZaWlp0pd6ouPUqQTQBgFQQTUpUlmjS1tbW19fnTgz+lSKxp1hp8u+ZY0QTAEgF0aREZYkmQcGdA8TK2traYKA5XOQ/vKGhQdeU8PZM/hBNACAVRJMSlSuaNDY2unNA0Uo3/+FFe4qjcoxoAgCpIJqUyBFNwovdybjMNzU11dTUWJVmWbzbQ1cWjr9HJMw9Z8EY7t4Q95oAAJJBNClRVDTxJCYG/+/IiD1FeohZFoe7N8Q3dAAAySCalGiQ0QTZRzQBgFQQTUpENMk9ogkApIJoUiKiSe4RTQAgFUSTEhFNco9oAgCpIJqUiGiSe0QTAEgF0aREKpqsXbu2Ezm1bt06ogkApIJoUqJO3jXJO6IJAKSCaFIioknuEU0AIBVEkxIRTXKPaAIAqSCalIhokntEEwBIBdGkREST3COaAEAqiCYlIprkHtEEAFJBNCkR0ST3iCYAkAqiSYkSjiaOv/rraPIhDg9X9vb2zpgxw6q0hEeVVxnnV8/F/RebC0QTAEgJ0aRECUeT1tZWu+qYQV6wxeHhynBNmE+fwfCZ36dPoGhPogkApIJoUiJHNHnm1RebV9/0/s6Z6lGV7eZyK3qJdROHW5V9fX1tbW1mjUicqox85vfpE3CkvQDRBABSQTQpUVQ0Wb9nR93yyz793MLOF+9d9uLXTr3/SjGdmFdQXe7t7a0/xvy4YcaMGbW1tXq1YPTs6upyX4zFOcXhYmXAWi0cP+2qVauCSj22XtqWWSn2FIl7Jc4Z0H0Cjp6FUGcL0QQAUkE0KVFUNDnzwavmb7ptyc4lwbJ055rm1TfZnSKiiVgprjY2NgaF9vZ2K7VYWlpadFmPEoeLlYHwJVx3VhYuXLhlyxZVUKPU2KBSDxF3QOwpEvdKnHPevHlqqqFDh6pHVXb01NybJpoAQCqIJiWKiiYn3HPhou2LdTS5d9fKms6ZdqcjnyboDxSGDBkSFPyjiaOngzsDiZXiqlhjVbo7mK3uD1b85xRXTeGmcI2JaAIAqSCalCgqmpz2wOXmuyY3bV0kvmtSkK7TjsuwY9V9fW1oaKg/Rr/rIA4XK8VVscaq1OWiO+DmP6fVJ+DoWQh1thBNACAVRJMSRUWTe3as/sCymVc/e/vd2xerxxOXf0K816QgZQLzSmldNR2r7uur2NO/UlwVa6xK97TicFHR4e5ddfQUa0xEEwBIBdGkRFHRpK+/b8nONac9cPkJ91x05kNXbdiz0+5hGDZs2PTp0/Wq4zpqrYp3YIjEnv6VgfA3dMR7TcT9F6d1ZwKTOFysDPgfKPcHSQWiCQCkhGhSoqhoMiBDhgxR6USvil8nEe/uFL+3IhJ7+ldqVk3UN3R0B/e04fmjiMPFSrPJ50BZq2FEEwBIBdGkRGWJJhWk1+PXYCsIvwYLAJlFNClRtUWTKkQ0AYBUEE1KRDTJPaIJAKSCaFIioknuEU0AIBVEkxIRTXKPaAIAqSCalCiVaFL0SyVZFt758K21PnenJoZoAgCpIJqUaJDRxLxOh6/ZUfx7lszxDdtBbj08PFwTVZkKogkApIJoUiJHNHnm1RebV9/0/s6Z6jHqp2BramqampqCsv/F2L+nqKGhwa4KSSyahH/GLVD0l9ASQzQBgFQQTUoUFU2e3tNdt/yyG7bctWTnsqU715x6/5ViOqmtrZ09e7a6PBeMa7b4k2vij4b19PTonqocVIrMOfVPozqG13tEE3G4/84HrFWToylJRBMASAXRpERR0eTMB68y/7yfSifin/cLrr7mo1kwy+JPrYs9RWJPsVL82Vmxp1jZ0tKiK/U+izsfcOy2oylJRBMASAXRpERR0eSEey5ctH2xjib37lpZ0znT7nTs6tvW1tbX1+e+5PtXisSeYqW4qvJE/TH+waiEDZkcTUkimgBAKogmJYqKJqc9cLn5rslNzy1yvGsSFNwXcrHSTAxmhzDz1g1ddgx3rOqyOLyhoUHX+IQYa9XkaEoS0QQAUkE0KVFUNFmyc80Hls28+tnb796+WD2euPwT4r0m+urb2NjovpAXrXR7/fXXa2pqgsSgbwFxDHcECPfWi/Z0zGxxNCWJaAIAqSCalCgqmvT193Xu/NrpD1xxwj0XnfXQvA17dto9jtBX36amJhUdrEqzLN6uoSsLx9/kEWZGk/AtIIXQcEeACO9SwRju3s/wvSZ8QwcAICKalCgqmngSL/n+X3IRe4rED3Qcw4Mm922w4nD3foa/oVMIxSBHZSqIJgCQCqJJiQYZTRJjXumzc9UP9PJrsACAEKJJiSolmpjvcJgfxKAoogkApIJoUqJKiSYoGdEEAFJBNCkR0ST3iCYAkAqiSYlWrFixb98++2qGvNi4cePmzZvtsw4AiB/RpET9/f3Lly9funRpZ3W466677Kpc2717t33KAQCJIJqguL179374wx9Wj3YDAADlRjRBEYcOHZo2bdqJJ56oHlXZbgYAoKyIJihi9erVp59+el1dnXpUZbsZAICyIprAZe/evUEuCagyH+sAAGJFNEEk/VGOjiZ8rAMAiBvRBJH0RzkmPtYBAMSKaALZwYMHGxoarFwSUPWq1R4AAEA5EE0Qac2aNR/60IesXKJqVL3dFQCAMiGaINKhQ4dmzJhx8skn61yiyqqGe00AAPEhmsBl7969Z5xxho4mqsw3dAAAsSKaoAj9sQ4f5QAAEkA0QRHBxzonnXQSH+UAABJANEFxe/furaur46McAEACiCbwoqKJXQUAQAyIJvBCNAEAJINoAi9EEwBAMogm8EI0AQAkg2gCL0QTAEAyiCbwQjQBACSDaAIvRBMAQDKIJvBCNAEAJINoAi9EEwBAMogm8EI0AQAkg2gCL0QTAEAyiCbwQjQBACSDaAIvRBMAQDKIJvBCNAEAJINoAi9EEwBAMogm8EI0AQAkg2gCL0QTAEAyiCbwQjQBACSDaAIvRBMAQDKIJvBCNAEAJINoAi9EEwBAMogm8EI0AQAkg2gCL0QTAEAyiCbwoqPJ2WefrSt1+Y033jjtGFUOKvfu3asrVdnREwAAjWgCL+5oYlZecMEF4Up3TwAANKIJvLijycyZM3Wl5t8TAACNaAIv7mgifkxz0kkn6cozzzzT0RMAAI1oAi/uaGKaNm1aUBBbTbonAAAa0QRewtFk/vz5J510UlA27xqZNGmSVXjP6CD2BABAI5rAi44m+hOZHTt2uD/Q8a8EAEAjmsALv2sCAEgG0QReiCYAgGQQTeCFaAIASAbRBF6IJgCAZBBN4IVoAgBIBtEEXogmAIBkEE3ghWgCAEgG0QReiCYAgGQQTeCFaAIASAbRBF6IJgCAZBBN4IVoAgBIBtEEXogmAIBkEE3ghWgCAEgG0QReiCYAgGQQTeCFaAIASAbRBF6IJgCAZBBN4IVoAgBIBtEEXogmAIBkEE3ghWgCAEgG0QReiCYAgGQQTeCFaAIASAbRBF6IJgCAZBBN4IVoAgBIBtEEXogmAIBkEE3ghWgCAEgG0QReiCYAgGQQTeCFaAIASAbRBF6IJgCAZBBN4IVoAgBIBtEEXogmAIBkEE3ghWgCAEgG0QReiCYAgGRkMZr09fUtX7586dKlnQCi7d692/6fBwAqXxajyYoVK/bt21cA4LRx48b169fb//8AQIXLYjRR/xy0X4MBSJYtW2b//wMAFY5oAlSwlStX2v//AECFI5oAFYxoAiB/iCZx6e/v73qh68ZbPjNhysSzhp9VV1enHlumjL/u8zdsev7Z/X377QHAwBFNAOQP0SQWW7+9tWXy+OYJY67puP7+DQ8+vuPrm360VT2qsqppHj9m7MRzn9r8TXsYMEBEEwD5QzQps/3793/+1s+PGD1y0cOLVRyJWlRr0+gR137uujffetOeAvBGNAGQP0STclK5ZPYn5ky7ePqTL68PxxFrUX2mXXzeBbMufOutt+yJAD9EEwD5QzQpp1tvv/W8i6c/s2dLOIiIi+qp0sm1N19vTwT4IZoAyB+iSdls27bt7OZznnhJeL9k7NRxerny5k+ZTap/0+gRG7dutKcDPBBNAOQP0aQ8+vv7W9taw/eXrN31DRVHhhzv6juvM/uoUeMmt6gZ7EmBYogmAPKHaFIe3d3dLZNarFyiljXfeUxlkcbmJlUIFrXadsk0q1vzhDFdL3TZkwLFEE0A5A/RpDzuXHDn9QtujIomZhYRo8m1Hdd/5pbP2pMer7a2tv6Irq7/DTFqVSz39vYGnVUhqNHDzUoHczZ3Zcn0Tnrukr/y7meWEU0A5A/RpDymTZt2//oHfaLJV59bHfzMibmosROnTLQnPZ6+3La3t+sLeU1NTVNTk9XBLIcLVjmK2EesLNlAd8lfeWfLMqIJgPwhmpRH04imx3f+vU80ERc19iPDP2JPejzxQl5bWzt79uy+vj6rQ2trq1UQhzvetxCv7lZlT0+PHq7Kuk9XV5c1Z1RlUCgY+ynuktlTl8U5rT4B//2sOEQTAPlDNCmPU045ZcO/bA5nDs9oosaefMrJ9qTHMy+3uhwUzEezEFWpc0BLS4uubGxsDArz5s1TnYcOHaoeVdlRKW5IpaX29nafSnO4Js4pVopzDnI/Kw7RBED+EE3KY8SIEYN916TpaDKIIl5fg0JbW1tfX1/RC3n9MeKbBNblWbxaO/qIW3e/Z1N0E2JPd2XRVXG43s+KQzQBkD9Ek/I477zzHnxmVThzhKPJSaefPOvqOVa3+9c/OLmtyNXRfX2tPyIomylEla2epoaGhnDPgNjfqjQ3pJuKDhxkT3eluOq/nxWHaAIgf4gm5bFgwYJb7r7NJ5qIb6Jc23H97R2325MeT7wS60JjY6OYQsI9TWJPcVWs9OkTrhR3yf/9FXelz6qjsuIQTQDkD9GkPLq7uye1TgpHk0e3r/3gX39QxZHTP3xGsKjyJVddanU7d+I4NYM96fH0pdT8ho6ubGpqqqmpsSrNsngl1veXqDlLeNdEDy8Yt60UHSjukmeluZ9iT3HVfz8rDtEEQP4QTcqjv79/6tSpyx9bGU4nm468U6KNnTrOal308OLWtilFfw1WfypR9HdNilZq+uswwXdVwk36TlKxsui3aTSzUpfF4e5Kcz91wSoXBrGfFYdoAiB/iCZls23btrFjxz79vY3haOJYnnhp/TnNo9RYezrAA9EEQP4QTcqpo6Pj0jmXbnrVzh9RyzN7tnzskvPvuOMOeyLAD9EEQP4QTcpp//79c+fOvXTOrA3fF37jxFqefHn9BTMvvGLuFWqUPRHgh2gCIH+IJmWmckZHR8fYsWO/svahZ//1W+FEEixLvraseUyz6kkuwWAQTQDkD9EkFtu2bWtra2ud0trxxTsf27L2ie+uVzHl67ueWv3so7csunXS5EmqlftLMHhEEwD5QzSJS39/f3d394IFC6ZPnz5y5Mi6ujr1qMqqRtUX/T4O4INoAiB/iCZABSOaAMgfoglQwYgmAPKHaAJUMKIJgPwhmgAVjGgCIH8yGk3Wrl3bCcBp3bp1RBMA+ZPRaGL/2xCAhGgCIH+IJkAFI5oAyB+iCVDBiCYA8odoAlQwogmA/CGaABWMaAIgf4gmQAUjmgDIn+qKJvX19XZViE+fMJ9RPn0GZMaMGbW1tXat34Z8+oT5jPLpg3IhmgDInxxGE8elsbW11a4KcQx30KMcw322HnBMYhF7+mxIHFhUWk8TUYgmAPKnkqLJ9846O7zYnQZ9wSttuM8125//JP49LaUNTOtpIgrRBED+VFg0KVpTiL7ghT/+UD27urrqj+jt7dWVQWHVEUG5p6cn6KaoclCphgQ1wSTWcEt463p4vbH1QNQkYeGe4Q3pPTQ3pAdWxNNEFKIJgPypomhSCDWpi2h7e7vVFBS2bNmycOFC3dMcqMuNjY1BQU2ir8f+WzdXW1pagsK8efNU/dChQ9WjKusOUcTN5e9pIgrRBED+VHU0Ea/EqvDKK69Y18uonu5Ki9XkuCfDMYlF7Jm/p4koRBMA+UM0scu1tbX1oX/KB5VaUCkOtzZhsprK8kmH2NOqFPezsp4mohBNAOQP0cQuBwXHJx1ipTVc5GgaNWqUueroaRF75u9pIgrRBED+VFg0CS92J+cFz/+aXTj+/lB9v0XBuGFikDdh6HkKx89fCPV0EHvm72kiCtEEQP5UUjTxZH0qsWXLlkLEfZfmpVGXzcqFCxcGw8VPJcSvrvhvXZzTbHLfHyrOKVbWV/LThBvRBED+5DCaANWDaAIgf4gmQAUjmgDIH6IJUMGIJgDyh2gCVDCiCYD8IZoAFYxoAiB/iCa2+or6Rmtl7S3KjmgCIH9yGE3Mq3UJV25xyCDnFDm+Veu/CcfPwJeL+JVgB/+dzyBx58XKkpX3vyWiCYD8qaRoEv69taI/uVbCS784ZJBzmmbPnh38UV/HnIPchENDQ4Nd5cd/l/x7Bga6S+roqWNo15aJuPNiZckc570ERBMA+VNh0aRoTSHipV98i0KsrD/222JmZU1NTVNTkyqoR1Ue6HDtc5/73I4dO4JyvbGf1psfZlOwKs45Y8YM/fOsAbGnuZ/W77H6q/fbpaDJXFVJQm89yGSFiF0Se9ZLG1LHUB3JoOwmDhdPnO5vroqV/vspVpbrv6UA0QRA/lRLNBF/Lt3sqTuoi317e7vVQVUG/1K/6KKLdBoQ5zSHWzng3nvv/cY3vqFXxc9ixE9PxF0SV8We4gEZKJ8NiTsvbt2/UtyQoo6kOp56NYp4OsQTJ+68WOm/n1GVg/9vSSOaAMifHEaTWuM31PVLv0lfJMRwIF54gsKQIUOGDRtmdtCsnuFy+FIa/ENZvL5amzBXi76/Ei6LlQPls6Giq+5dKlppPXcr6onEOU2OvY2qFOcU99PRczD/LZmIJgDyJ4fRRHxBb2hoqD9G55Wod9GDglkOCupaMn36dF0pzikO37FjR31EClGVqsn9J3mtVZOjpy6bV3Qxjfnw2ZC4aiZF9y6JPXUhLDh0+gMykTlcl8UTZ/VxVPrvp1lp9Sz5vyUL0QRA/lRLNBErTTociD0HWRlwfKBj9XSvmhw9dfn111+vqampPyLqloWifDbksxoQd0nsKVYWpHehROJ+ipXiqljp0ydc6d66f6WFaAIgfyosmoQXu1PEC7r+qL69vd39Ab84XKwU56x13h8QdRusdeFxr5ocPXXZzAHmLs2YMcMxs8VnQ+KquUV9wMVdEnuKe+h/G6x4OsQTFxA35/OMig7UZbFS3CVx5y1EEwD5U0nRxJP40q8/uwm+8mBV1kf8212XxUpxTr1qzmnSXx4Wtx4ImsT7LjX/OzTFT08C4swW/w0FrJ0Xn6a4S2JPa/LCAL88XC+dDvHEmU3Wz7f4PCNrnnClLouV4i7pVXNDFqIJgPzJYTRJl3iJSpd4LRRXE+PYpfKKdfK4+ew80QRA/hBNyszncpIw81/51gc6r7zyitExOVG7VHYZPB3+fHaeaAIgf4gmQAUjmgDIH6IJUMGIJgDyh2gCVDCiCYD8yW008fmc3l95ZwPKhWgCIH9yG038f/bUJ3b49AGSRzQBkD+VFE3Cv7cm/uTaQPnEDp8+QPKIJgDyp8KiSdGawIwZM8K/8hn161U+sUP3WXXE8Y1AaogmAPInn9GkEAoc5m9+6ybxd05FwZAtW7YsXLjQbgPSQzQBkD/VEk3MVUdTFNXnlVdecccXIHlEEwD5QzSxV0W1tbVF31kBkkc0AZA/RBN7VcQHOsgmogmA/KmwaBJe7E7HOPKHoymK7sNtsMgUogmA/KmkaOJJvLnVEU2sP3kvMocsXLhwy5YtRiOQGqIJgPzJYTQBqgfRBED+EE2ACkY0AZA/RBOgghFNAOQP0QSoYEQTAPlDNAEqGNEEQP7kNpr4fCV4kOLYxIDmDP+pINOApkKFIpoAyJ/cRpPW1la7KoL/JbyEH0QZqIHO6ejvaEJuEE0A5E8lRZPw7605fnLNn/8lnGiCrCGaAMifCosmRWsC4U861HW6q6ur/oje3l6ryVx1CEeT8JxiZU9PT1CjqHJQGfzUm9WzXhou9tT9zVXdM5jEbEIuEU0A5E8+o0khdM1WSaW9vd1qEn83ViT2FOcUK82dEStbWlqCgv9wcbWxsTEoqEkct6EgN4gmAPKnWqKJ/9XdwTFQjBH6fhexp3g3jNhTrCy66v+8ULmIJgDyh2hirzo4BooxQqutra03BJXixzS61SyLlUVXrSbkEtEEQP4QTexVB8dAMUZoYqVp1KhRQaHonI59sFaLbhQ5QDQBkD8VFk3Ci93pGP9rtv8l3DFQjBGavgWkYNxWogsFo0PROR37UOBek+pDNAGQP5UUTTyJt6w6ru7BByvu22ADVk9xTjGaiJ/diJXmcF0We4pPk2/oVBuiCYD8yWE0AaoH0QRA/hBNgApGNAGQP0QToIIRTQDkD9EEqGBEEwD5QzQBKhjRBED+ZDSarF27thOA07p164gmAPIno9HE/rchAAnRBED+EE2ACkY0AZA/RBOgghFNAOQP0QSoYEQTAPlDNAEqGNEEQP4QTYAKRjQBkD9EE6CCEU0A5A/RRP5bwQFHU2kGNGFvb++MGTPs2sEZ0A6E1dbWmn/oOPjrx6ryuE4JUsdH/ynm6kQ0AZA/RJNCa2urXXXMIC/kYY5thVlbV9fg+mOs67H/fg5oB8LEDYmViUl366kjmgDInwqLJs+8+mLz6pve3zlTPaqy3VxuKV72+vr62trazBpzZ6wdi28/GxoazFVxQ2JlWVhbFw0ybFU6ogmA/KmkaPL0nu665Zddt/nOL+/ovGfHqlPvv1JMJ+IlPOothxkzZlifR+ieXV1d7otu8OmG0tPTY87sv636Y1uxegZN5qpVY12Prc5R03rugLn/jY2NVn9z1VFpEY9JvffWxeFavccO5BXRBED+VFI0+fCDn5q/6bYlO5ccXXY83Lz6JrtTRDQRK8VVfTlsb29330URnjwotLS06D7uS7uaX21FbApfbsW3B4K7PYYOHVpv3ALiP63Y0/9YOSot4jHx37pZaU4V8NmBvCKaAMifSoomJ9xz4aLti3U0WbZrRU3nTLvTkUu4vooPGTIkKIgXvKKr7mte+MIZ7u+Y3Fp1NAWCdw7uvfdeq74Q6myuFn1/JVwWK8VVR6WDuCG9n+LWxVimDXQH8oRoAiB/KimanPbA5ea7JjdtXSS+a1KQLn7iBa/oqvuaF548KDQ0NNQfE/4AJWrV0WRS0UQ1jRo1yqz0HFsINYk7YOYAd7JxVFrEYyIOFLfOBzpRiCYA8qeSosnSnY98YNnMq5+9/e7ti9Xjics/Id5rUghlBbNgld2r7mteePKg4JjBsepoCpjXbHfn8FjN0VOXX3/99Zqamvojit4BE1VpETckDnRsPWDFskLEPFWCaAIgfyopmvT399+767EzHph7wj0XfeShv9mwZ6fdwzBs2LDp06frVfHSKK4O/l4TxwyOTVtNg/mGjuNS7eipy2Y4cN8r46i0iMdEHChuXbxVJeD+rCf3iCYA8qeSosmADBkyRKUTvSp+IiDeQ6p7Fv2Gjm61CuIM4rbM+cPbsmrEp2A2idNq/jsgfqQSEGcWKy3iMREHilt3PHdxkupBNAGQP7mNJjnQG8OvwfowL/bWhT8IB9avwZY3HDi2HsavwRJNAOQP0QQ28y0K69OTBKS79YpDNAGQP0QToIIRTQDkD9EEqGBEEwD5QzQBKhjRBED+EE1c91o6muBQlht4Szj4JQyJYk6V5ZttiSYA8odoYn8/1lTGS92AWNutPfZ3BOtDX50VibstVsbE2pa56r8b/j21EoZEcTyFTCGaAMifCosmz7z6YvPqm97fOVM9Rv0UbBmldUFyXBd9dknsI1bGIfxjcTU1NU1NTUHZfzf8e2olDIliTeXIr+kimgDIn0qKJk/v6f6r5XOu23znl3d0fnnH/zn1/ivFdCJeyKN+s2vGjBnWD7aKPw4mMudctWpVuFJvyJxHl+uPbcLsafUJr+qyuCGrj6Oyp6dHD1dl3Se8S2LlgLaujvDs2bNVZDFbxRnEgy/uqkgPrDfmFIf7b10L12QB0QRA/lRSNPnwg58y/7zfkh0Pi3/ez7yE6LJYKa6KP6kuMn91Y+HChVu2bClEbEisVJOrTViVRX+zVf/zXfztdnG4WOm/S2KlOdzck0LoeOoa89EsmGXx4Is9RUV3VZfFoyduXXNvOi1EEwD5U0nR5IR7Lly0fbGOJst2rajpnGl3OnLx1tfvIUOGBAXx+lR01X01ElvF4f6V4mrRe03cw8VKcetmpT6GYk/HBxzhrQc1bW1tfX194rZKqBSJPcVKk2fPcE0WEE0A5E8lRZPTHrjcfNfkpq2LxHdNCtLFxnHVcay6r0Ziqzjcv9JnNdDQ0FB/jPVPfLG/VWnGHd1UdKAuix+IWH3CNVHbcleKuyryHy4ePd1qlaNqsoBoAiB/KimaLH3xkQ8sm3n1s7ffvX2xejxxxSfEe00K0qXOcdVxrLqvRmKrONy/0mc1XDnQ/uFVz0qxw6hRo8zVcB9d09jY6M4BRSvd/IcX7RkeFa7JAqIJgPyppGjS399/367Hz3hg7gn3XPSRh/5mw56ddg/DsGHDpk+frlcdVx1r1X3DgamEe008b6FwrwYc+yn2j3qaBePGi6IDdVm8VyMQ/oaOHtXU1FRTU2NVmmXxSYm7KnLPWTCGuzcUPqSOD7DSRTQBkD+VFE0GZMiQISqd6FXxAwjx/lD31zRM5pzub+iIc+qCVS4c6y/esqqJc5pNerhYKe6nuCGzUpfF4Zo1j/8M4pMSe4r0ELMsDndvKHxIrdXsIJoAyJ/cRhOkqLccvwabHfwaLAAkiWgCVDCiCYD8IZoAFYxoAiB/iCZABSOaAMgfoglQwYgmAPKHaOL68oWjqQTlnS3LwrfBZvlO0opGNAGQP0QT109WlDdMODZksbZr/p6pzwVe3G2xMibitsRKDBLRBED+VFg0eebVF0evvvH9nTObV98U9VOwZZTW1dTarrnqs0tiH7EyDuGfXAv4JzP4I5oAyJ9KiiZP7+n+q+Vzrt3csXjHki91P3Tq/VeK6US8kIu/u1U48kGD9bufjt/dsug+5pxiZUHaUFTPoClqVZejnpHZx1HZ09Ojh6uy7hPeJbFyoFsPOJpQGqIJgPyppGjy4Qc/Zf55vy/v+D/in/czr3+6LFaKq45fK7eoVtUnKOtRZqV7Q2JP8QdqzYH6vQfxp+LF4WKleEDEXRIrzeHWj8dbT9PkaEJpiCYA8qeSoskJ91y4aPtiHU2Wvri8pnOm3enIxVtfv4cMGRIUxCtx0VX3pVTsaVZaH2H4b8haLXqviXu4WClu3azUOy/2dHw6I2494GhCaYgmAPKnkqLJaQ9cbr5rctPWReK7JgXpWiteX4uuui+lYk/HEP8NuVcDDQ0N9ceEPyoyV8VKM+7opqIDdZkPdDKCaAIgfyopmix78dEPLJt59bO33719sXo8ccUnxHtNClJQEK+vRVfdl1Kxp2OI/4bcq+HKgfYPr3pWih1GjRplrop9Ao4mlIZoAiB/Kima9Pf3L//u/z3j7+aecM9FH/nq32zYs9PuYRg2bNj06dP1quP6aq0O8l4Tx9XXsV1HU3g14NhPsX/U0ywYN4sUHajL4p0uAb6hkySiCYD8qaRoMiBDhgxR6USvih9AiPeHDv4bOsf3+gtxQ2ZPa1SwD2JPzbGf1nCxUjwg4obMSl0Wh2tF50G5EE0A5E9uo0kCuNZG6eXXYJNCNAGQP0ST0hFNkDqiCYD8IZoAFYxoAiB/iCZApXr77beJJgDyJ4vRZMWKFfv27bNfhgEcb9OmTZs3b7b//wGACpfFaPKXLwkvX75s2bKlObV48WK7KvMWLlxoV2XVkiVLKvEIl2D37t32/zwAUPmyGE3y6he/+MXq1asvu+yy+vp6uy3b9u7d29jYqB7thkw6cODAGWecoY6zOtrqmNvNAIBsI5rE6w9/+MMLL7xw++23jzlCFdRqXV2d3S/DDh06dMkxqmw3Z9K4ceMeeeQR67Crc2H3AwBkD9EkXvX19eF/vldWNFHXeBVKDh48qB5V2W7OpLlz53Z3dwdl/WbVGWecceDAgeM7AgAyh2gSLzGFiJXZZH6UU0Ef69x1112PPvqoVTlu3LjXXnvNqgQAZA3RJF5iChErMyj4KMd8pyR4ByX7H+uoXKLSiVVpvpUCAMgsokm8xBQiVmZQOIiEw0o2qQiigohVKb6VAgDIGqJJvMQUIlZmzcGDBxsbG7/73e9a9apG1atWqz5TXnvttXHjxlmV4lspAICsIZrEy0whFffl4cp910T8/rD4VgoAIGuIJvFS0ST85eFK+RZrOIiEw0pmhb+2rXb+3HPPtfsBADKGaBKjn/zkJyqazJo1q3J/+6tCv6FjCd6vmj179oknnvjjH//YbgYAZAnRJC79/f3jxo17+umn7YZKU4m/axLlqaeeGj9+/Ntvv203AAAyg2gSi0OHDn3yk5/84he/aDdUoEr8NViHjo6Oq6++2q4FAGQG0SQW991336xZs/785z/bDZVp7969dXV1lfhRTtiBAwfOP//8NWvW2A0AgGwgmpTfd77znebm5jfffNNuqGQV8YVnT6+//vqIESO+//3v2w0AgAwgmpTZL3/5y+HDh+/Zs8duqHB5iibKiy++eM455/z+97+3GwAAaSOalNM777wzefLkJ5980m6ofDmLJsrKlStnzZqV8d+OA4AqRDQpm8OHD8+fP/+OO+6wG3Ihf9Hk0KFDV1xxxZIlS+wGAECqiCZl85WvfOXiiy8+cOCA3ZAL+Ysmyv79+5ubm7/zne/YDQCA9BBNymPnzp3nnHPO7373O7shL3IZTZQf/vCHTU1N//Ef/2E3AABSQjQpg1/96lfq8vbKK6/YDTmS12iirF27dtq0aX/605/sBgBAGogmg/WHP/xh6tSp69atsxvyJcfRRLnxxhu/8IUv2LUAgDQQTQbr+uuvr4arWr6jicqXra2tTz31lN0AAEgc0WRQVq1adf7557/77rt2Q+7kO5q8d+RPAA4fPvzf/u3f7AYAQLKIJqX77ne/e/bZZ//2t7+1G/Io99FE2bp167hx4wqFgt0AAEgQ0aREv/nNb0aMGPHyyy/bDTlVDdFEWbRo0bx58w4fPmw3AACSQjQpxR//+Mdp06Y99thjdkN+VUk0OXDgwMUXX/zVr37VbgAAJIVoUopPf/rTN998s12ba1USTZTf/va3I0eOfOmll+wGAEAiiCYD9vDDD3/sYx+rtp/BqJ5o8t6xu4j+8z//024AAMSPaDIwwUWrt7fXbsi7qoomyt/93d/NnDnzz3/+s90AAIgZ0WQAqu3WV1O1RZPDhw9/8pOf/PKXv2w3AABiRjTxFdz6+vjjj9sN1aHaoonS19c3ZsyYbdu22Q0AgDgRTXzdcMMN1Xbrq6kKo4myZ8+e4cOH7927124AAMSGaOKlen71NUp1RhNl3bp106ZN+5//+R+7AQAQD6JJcbt27aqeX32NUrXR5D3++B8AJItoUsSvfvWrpqam73//+3ZDlanmaMIf/wOAJBFNXNQ1qa2tbd26dXZD9anmaPIef/wPABJENIl0+PDha6655tZbb7Ub3nvv7LPPDpffeOON045R5aBy7969ulLfTSn2zDgdTarwuQeee+65lpYW64//Ve3RAID4EE0ifeUrX7nooovEW1/FC5JZecEFF4Qr3T0zzh1NxGfk37NS/O3f/q31x//8n6N/TwCockQTWXd39znnnPO73/3ObjhCvMzMnDlTV2r+PTPOHU3EZ+Tfs1IcOHDgwgsvXLVqla7xf47+PQGgyhFNBK+99lpTU9M///M/2w3HiJcZ8c35k046SVeeeeaZjp4Z544m4jPKzXM39fb2jhgx4nvf+16wWuVHAwDiQDSxvf3225MmTXriiSfsBoN4QTJNmzYtKIitJt0z49zRxJS/527ZtWvXOeec8/vf//49jgYAxIBocpzDhw/PmzfvzjvvtBuOpy8z8+fPV/8aDsrmvQIq3FiF94wOYs+MC0eT6nnuYStXrpw1a9bBgwc5GgBQdkST46xYseKSSy45cOCA3XA8/T78jh073G/j+1dmnI4mVfjcww4dOnTFFVd0dnZyNACg7Igm/2vbtm2jR48O3qiHpcp/1yTsrbfeam5ufuGFF+wGAMDgEE2O+tnPfjZ8+PBXX33VbsARRJOwH/zgB01NTb/+9a/tBgDAIBBN/qJQKIwfP/6ZZ56xG3AM0UT02GOPzZgxQ/zxGwBAaYgmf7lvoL29fdGiRXYDDESTKNdff/1tt91m1wIASkU0ea+zs3POnDkHDx60G2AgmkR55513Jk6cyFtuAFAu1R5NnnvuubFjx+7fv99uwPGIJg4//elPGxsbe3p67AYAwMBVdTT593//d3VF4c/J+iCauG3atGnChAnvvPOO3QAAGKDqjSb79+8fO3bsc889ZzdAQjQp6o477rj22mvtWgDAAFVpNDl48OBll13W2dlpNyAC0aSod99996Mf/egjjzxiNwAABqJKo8ndd989d+7cQ4cO2Q2IQDTx8Zvf/Mb9hyEBAEVVYzTZuHHj+PHjC4WC3YBoRBNP27dvHz169Jtvvmk3AAD8VF00+dGPfjR8+PCf/exndgOciCb+li1bdvnll/OeHACUprqiyRtvvNHc3NzV1WU3oBiiib+DBw/OmTNn+fLldgMAwEMVRZM///nPl156KReM0hBNBkSF4FGjRu3cudNuAAAUU0XR5K677vrUpz51+PBhuwEeiCYD9f3vf3/EiBGvv/663QAAcKqWaPLNb35z4sSJb7/9tt0AP0STEqxZs+aCCy44cOCA3QAAiFYV0eSHP/zh8OHDf/nLX9oN8EY0Kc38+fMXLFhg1wIAouU/mvzXf/3XqFGjXnjhBbsBA0E0Kc3bb789fvz4Z5991m4AAETIeTQ5cODAxz/+8QceeMBuwAARTUoW/Kmmn//853YDAECS82iyYMGCefPmcevr4BFNBmP9+vWTJk367//+b7sBABCS52jy9NNPc+truRBNBunWW2+94YYb7FoAQEhuo8mrr746fPjwX/ziF3YDSkI0GaQ//elP06dPf+yxx+wGAMDx8hlNgl993bZtm92AUhFNBu/Xv/51U1PTD37wA7sBAGDIYTQJfvX1vvvusxswCESTsviHf/iH0aNHv/XWW3YDAOCYHEaTRYsWXXnllfxxtfIimpQLf/wPANzyFk02btw4fvz4QqFgN2BwiCblEvzxP97VA4AouYomP/7xj4cPH/7Tn/7UbsCgEU3KKPjjfzt27LAbAAB5iib79+8fM2bMt7/9bbsB5UA0Ka9XXnmlqalp3759dgMAVL2cRJODBw9edtllS5cutRtQJkSTsnvkkUc+9rGPvfvuu3YDAFS3nESTL33pS1dccQW3FsaHaBKHa665pqOjw64FgOqWh2iyefPmcePG9ff32w0oH6JJHN55550JEyZs3LjRbgCAKlbx0eQPf/jDmDFjfvKTn9gNKCuiSUx6enrUf8B//OMf7QYAqFZyNOnr61u+fPnSpUs7K8HixYvtqgHavXu3fQhiU1nHttIleWaVF198ccmSJfZOFDP4/4Bjpf5bXblyJV/IB5AYOZqsWLFi3759haqxcePG9evX20chHtV2bNOV5JndtGnThg0b7D3IBfVf7AMPPGA/YQCIhxxN1D+V7BenvFu2bJl9FOJRhcc2XYmd2Xvvvdfedo6oZ2c/YQCIB9HkqJUrV9pHIR5VeGzTldiZJZoAQFkQTY5K7AJWhcc2XYmdWaIJAJRFKdHkzf1vrv/Whmtuvq6ldfyZw8+qq6s7a/hHJrZN/Oytn3th+wv9/f32gEqQ2AWsCo9tuhI7s+5oos7dc9u2fvoLN46fMuGso2f2LFVWNao++2eWaAIgMQOLJvv7+9Zu/PqYiWObx4+5puP6+zc8+PiOr2/60Vb1qMqqpnnCmAmTJz7f9bw9MvMSu4BV4bFNV2Jn1hFNNm19dtykcZFndvwY1ar62MOyhGgCIDEDiCa//f3vrvrM3zSNHrHo4cXqhTVqUa0jR5996+237d+/354iwxK7gFXhsU1XYmdWjCbqTN30hc+M8Dizqo/qmdkzSzQBkBjfaKKunR+d+bFpF5/35Mvrwy+s1qL6TP/4jE9ccXlmX2fDEruAVeGxTVdiZzYcTdQ5umTOTP8zq3qq/tk8s0QTAInxiib7+/vUv+nV6+Yze7aEX1LFRfX86CUfu+OOO8x5siyxC1gVHtt0JXZmw9Hks7d+bqBnVvVXo6x5soBoAiAxXtFk7cavN40e8cRL9r/8xk4dp5crb/6U1ar6jx4zetu2beZUmZXYBawKj226EjuzVjT59vPPjxg9Mnxm3SdX9Vej1FhzqiwgmgBITPFo8ub+N8dOPNf6pHztrm+oV9Uhx7v6zuusl+Avrb6nbWpb9r99UEjwAlaFxzZdiZ1ZM5qo8zKxdWL4/hKfk6tGqbFZO7NEEwCJKR5N1n9rQ/OEMdYr7JrvPKZeUhubm1QhWNRq2yXTrG5qmTh5Ynd3t/ESNyj19fV2VZkkdgHL7LENxHeELeENzZgxo7a21qrUwv09JXZmzWiizsuYCWPDp8zz5KqxZT+zhUEcwwLRBECCikeTa26+7tqO68VXWPMlVXyFVcvnF92yYMECPZv54ljCC6U4ZJBzBhK7gMV3bHt7e+uPUWVdXxjIYWltbbWr/KhUEbV1kbghx346mtwSO7NmNLm147bwmfU/uWqsmsF4Eimf3ALRBECCikeTltaW+9c/WPQV9qvPrQ5+rcFaVm1ac9555+nZzJdR/5dUTRwyyDkDiV3AUjm2JR+WohoaGoKCY+v+HAMdTW6JnVkzmrROnRI+s/4nV41VM/zvc3Ae3pKPTFH65BaIJgASVDyanNl45uM7/77oK2zUsu7FJ0eOHKlnE19hxX8RipWq3NXVZVXW1NQ0NTWpgnpU5YEODyR2AUvm2Fr/PjabglXxOIQ/UhF7mse2sbFR9zRHOSoL0oYCZp+CsaFgH4LKnp6eYxuvV+WgUvepT+/MmtGksWl4+Mxu8j65aqyawXgSKZ/cAtEEQIKKR5OTTzl5w79sLu0V9i/LD7fWR1yfdLmlpUVXipc63UG9tra3t1sdVOXs2bNV4aKLLtIvvuKc5nDzZbeQ4AUsvmMrvl0/b9481Wfo0KHqUZWDSvEwiqtiT/Ekinsi9hRXxUp9jtQ+6DMrzinuZyCxM2tGk1NOOSV8Zjd5n1w1Vs1gPImUT26BaAIgQcWjyVnDzwr/+8/zFVYt39z9jPkv+1rjjgR9sTHpV0PxtVh83QwKan+GDRtmvfgGir7sFhK8gMV3bIN/74Z/XaMQerLmatF/gofLYqV4ZsWe4qpYKQ4vWmk9o8TOrHnkhw/6XZPhx79rku7JLRBNACSoeDSZMGVC+FPz8CvsSaefPOvqOeEX2f+7dV3R+yEaGhrqj9FXtahPZIKCWQ4KKpdMnz5dV4pzisMDiV3A4ju2AXUJUU9t1KhRZqX1ZK1Vk6OnLpsXPPcbJGKluCpWisPNDCRuyJLYmTVzw9RpU8Nn1v/kqrFqBuNJHJXWyS0QTQAkqHg0+eytnwt/1yD8Chv1b8G7vryw6Dd0xEqTfi0Wew6yMpDYBSy+Y2teSBwXofCqydFTl19//fWampr6I3xSY7gcXhUrxeE+A02JnVkzmqjz8ukFnwmfMs+Tq8aaZ7aQ9sktEE0AJKh4NHlh+wvhX2h4dPvaD/71B9Wr6ukfPiNYVPmSqy61uj33464pU6aYv9AgvhqKtxSIN4uIw8VKcU7zw/Us3GuSwLH1WTU5euqyefXyPDXmWbCaHJXiSTRPnP6PRJwtkNiZNaOJOi/jJ02wTpn/yVVjrd81EQ+vz6rJ0VOXxZNbIJoASFDxaBL1u5abjvyDTxs7dVy4w8NfXz116lTzdy3FV0PxixgD/UDHKotz6lVzzkBiF7D4jq14xMwmfaekPiAm8Z5Ks6cui+/5m5+zhL/uYZ4FcUNipThcfJq6NSyxM2tGE3Ve2qZOXbxmSfjEFT25alTb8We2EPGszSbxlGni4TV76rJ4cgtEEwAJKh5NlOe7nh85+mzxr4E4luf++flzzz03U3/nRXzVDiR2AcvBsRUvaZmV2Jm17lFVZ6d5bPNAz6zqr0aldWYL0SeXaAIgMV7RRLn19tumf3yG/99Q3fqvXXMum9PR0WHNky7HdTSxC1gOjq35L3jrc7EMSuzMhr8+o87RRZde7H9mVU/VP8UzW4g+uUQTAInxjSb79+//xBWXf/SSjz35cvF/BW79wV+unXPnzlWjrHkyK7ELWBUe23QldmbD0USdI3WmPj7rkidf3hA+ldai+qiemT2zRBMAifGNJoUjr7N33HHH6DGjv7T6nvALa7A89+Ouh7+++txzz1X/8svmK2yUxC5gVXhs05XYmQ1Hk8KRM6vO15ixY+57dGX4nOpFtao+WT6zRBMAiRlANAls27atra1twuSJN//tF1Y9u2bdzie2/OvzT+1ev3br1+9avHDKlCmqNcVPykuW2AWsCo9tuhI7s2I0CQRndnLr5NvvvmPN5se+seubKo6oR1VWNao++2eWaAIgMQOOJoUj3z7o7u5esGDB9OnTR44cWVdXpx5VWdWoeuubBZUisQtYFR7bdCV2Zh3RpFD5Z5ZoAiAxpUSTXErsAlaFxzZdiZ1ZdzSpdEQTAIkhmhyV2AWsCo9tuhI7s0QTACgLoslRiV3AqvDYpiuxM0s0AYCyIJocldgFrAqPbboSO7NEEwAoi8hosnbt2s6qsW7dusQuYJ1VdmzTleSZVRfvvJ5ZdRiJJgASExlN7H805V1iF7AqPLbpSuzM8q4JAJQF0eSoxC5gVXhs05XYmSWaAEBZEE2OSuwCVoXHNl2JnVmiCQCUBdHkqMQuYFV4bNOV2JklmgBAWRBNjkrsAlaFxzZdiZ1ZogkAlAXR5KjELmBVeGzTldiZJZoAQFkQTY5K7AJWhcc2XYmdWaIJAJRFZDTJ6y80iJL89YvOKju26UryzPK7JgBQFpHRxP5HU94ldgGrwmObrsTOLO+aAEBZEE2OSuwCVoXHNl2JnVmiCQCUBdHkqMQuYFV4bNOV2JklmgBAWRBNjkrsAlaFxzZdiZ1ZogkAlAXR5KgVK1bYRyEeVXhs05XYmSWaAEBZREaT/v5++8Upv1577bVHHnnEPgrxqLZjm64kz+yaNWt+/vOf23uQC+q/2Pvuu89+wgAQDzma7N69e+PGjfbrU06pq9eCBQveffdd+yjEo6qObboSPrNqQx0dHflLJ2+//fbmzZv/8R//0X7CABAPOZoomzZtWlkdvva1rx04cMB+/nGqnmObruTPrNqc2qi9HxVu6dKl69evt58qAMQmMpoAAAAkj2gCAAAyhGgCAAAyhGgCAAAyhGgCAAAy5P8H9iVPe7RmP6sAAAAASUVORK5CYII=;" vertex="1" parent="1">
            <mxGeometry x="60" y="250" width="734" height="625" as="geometry" />
          </mxCell>
        </UserObject>
      </root>
    </mxGraphModel>
  </diagram>
</mxfile>
